<svg xmlns="http://www.w3.org/2000/svg" xmlns:xlink="http://www.w3.org/1999/xlink" width="1024" zoomAndPan="magnify" viewBox="0 0 768 247.499998" height="330" preserveAspectRatio="xMidYMid meet" version="1.0"><defs><g/></defs><g fill="#ffffff" fill-opacity="1"><g transform="translate(41.771283, 225.123747)"><g><path d="M 195.625 -192.515625 C 197.050781 -189.203125 197.476562 -185.722656 196.90625 -182.078125 C 196.34375 -178.429688 194.828125 -175.332031 192.359375 -172.78125 L 70.5625 -36.90625 L 195.34375 -36.90625 L 195.34375 0 L 28.96875 0 C 25.363281 0 22.023438 -1.015625 18.953125 -3.046875 C 15.878906 -5.085938 13.582031 -7.765625 12.0625 -11.078125 C 10.457031 -14.390625 9.960938 -17.84375 10.578125 -21.4375 C 11.191406 -25.03125 12.679688 -28.15625 15.046875 -30.8125 L 137.140625 -166.671875 L 12.0625 -166.671875 L 12.0625 -203.578125 L 178.734375 -203.578125 C 182.328125 -203.578125 185.660156 -202.5625 188.734375 -200.53125 C 191.816406 -198.5 194.113281 -195.828125 195.625 -192.515625 Z M 195.625 -192.515625 "/></g></g><g transform="translate(249.19009, 225.123747)"><g><path d="M 221.1875 0 L 184.28125 0 L 184.28125 -49.96875 L 54.515625 -49.96875 L 54.515625 0 L 17.609375 0 L 17.609375 -101.796875 C 17.609375 -116.648438 20.160156 -130.320312 25.265625 -142.8125 C 30.378906 -155.3125 37.476562 -166.054688 46.5625 -175.046875 C 55.644531 -184.035156 66.382812 -191.035156 78.78125 -196.046875 C 91.1875 -201.066406 104.722656 -203.578125 119.390625 -203.578125 L 202.59375 -203.578125 C 205.144531 -203.578125 207.554688 -203.101562 209.828125 -202.15625 C 212.097656 -201.21875 214.082031 -199.894531 215.78125 -198.1875 C 217.488281 -196.476562 218.816406 -194.488281 219.765625 -192.21875 C 220.710938 -189.945312 221.1875 -187.535156 221.1875 -184.984375 Z M 54.515625 -86.890625 L 184.28125 -86.890625 L 184.28125 -166.671875 L 119.390625 -166.671875 C 118.253906 -166.671875 115.863281 -166.503906 112.21875 -166.171875 C 108.582031 -165.835938 104.375 -165.007812 99.59375 -163.6875 C 94.8125 -162.363281 89.769531 -160.328125 84.46875 -157.578125 C 79.164062 -154.835938 74.289062 -151.050781 69.84375 -146.21875 C 65.394531 -141.394531 61.726562 -135.363281 58.84375 -128.125 C 55.957031 -120.882812 54.515625 -112.109375 54.515625 -101.796875 Z M 54.515625 -86.890625 "/></g></g><g transform="translate(491.817564, 225.123747)"><g><path d="M 224.3125 -118.40625 C 224.3125 -109.976562 223.269531 -102.453125 221.1875 -95.828125 C 219.101562 -89.203125 216.285156 -83.359375 212.734375 -78.296875 C 209.191406 -73.234375 205.097656 -68.898438 200.453125 -65.296875 C 195.816406 -61.703125 190.96875 -58.769531 185.90625 -56.5 C 180.84375 -54.226562 175.734375 -52.570312 170.578125 -51.53125 C 165.421875 -50.488281 160.566406 -49.96875 156.015625 -49.96875 L 72.546875 -49.96875 L 72.546875 -86.890625 L 156.015625 -86.890625 C 160.753906 -87.265625 165.039062 -88.234375 168.875 -89.796875 C 172.707031 -91.359375 175.992188 -93.460938 178.734375 -96.109375 C 181.484375 -98.765625 183.613281 -101.957031 185.125 -105.6875 C 186.632812 -109.425781 187.390625 -113.664062 187.390625 -118.40625 L 187.390625 -135.15625 C 186.921875 -139.789062 185.925781 -144.046875 184.40625 -147.921875 C 182.894531 -151.804688 180.835938 -155.117188 178.234375 -157.859375 C 175.640625 -160.609375 172.492188 -162.765625 168.796875 -164.328125 C 165.109375 -165.890625 160.847656 -166.671875 156.015625 -166.671875 L 72.828125 -166.671875 C 67.910156 -166.671875 64.171875 -165.390625 61.609375 -162.828125 C 59.054688 -160.273438 57.78125 -156.585938 57.78125 -151.765625 L 57.78125 0 L 20.875 0 L 20.875 -151.765625 C 20.875 -161.222656 22.597656 -169.265625 26.046875 -175.890625 C 29.503906 -182.515625 33.8125 -187.863281 38.96875 -191.9375 C 44.125 -196.007812 49.726562 -198.96875 55.78125 -200.8125 C 61.84375 -202.65625 67.429688 -203.578125 72.546875 -203.578125 L 156.015625 -203.578125 C 164.347656 -203.578125 171.828125 -202.507812 178.453125 -200.375 C 185.078125 -198.25 190.921875 -195.410156 195.984375 -191.859375 C 201.046875 -188.316406 205.351562 -184.226562 208.90625 -179.59375 C 212.457031 -174.957031 215.390625 -170.101562 217.703125 -165.03125 C 220.023438 -159.96875 221.707031 -154.859375 222.75 -149.703125 C 223.789062 -144.546875 224.3125 -139.695312 224.3125 -135.15625 Z M 224.3125 -118.40625 "/></g></g></g></svg>