<svg xmlns="http://www.w3.org/2000/svg" xmlns:xlink="http://www.w3.org/1999/xlink" width="1024" zoomAndPan="magnify" viewBox="0 0 768 247.499998" height="330" preserveAspectRatio="xMidYMid meet" version="1.0"><defs><g/></defs><g fill="#088046" fill-opacity="1"><g transform="translate(41.374318, 225.476621)"><g><path d="M 195.859375 -192.734375 C 197.285156 -189.421875 197.710938 -185.9375 197.140625 -182.28125 C 196.578125 -178.632812 195.0625 -175.535156 192.59375 -172.984375 L 70.640625 -36.953125 L 195.578125 -36.953125 L 195.578125 0 L 29 0 C 25.394531 0 22.050781 -1.015625 18.96875 -3.046875 C 15.894531 -5.085938 13.597656 -7.769531 12.078125 -11.09375 C 10.472656 -14.40625 9.976562 -17.859375 10.59375 -21.453125 C 11.207031 -25.054688 12.695312 -28.1875 15.0625 -30.84375 L 137.296875 -166.875 L 12.078125 -166.875 L 12.078125 -203.828125 L 178.953125 -203.828125 C 182.546875 -203.828125 185.882812 -202.804688 188.96875 -200.765625 C 192.050781 -198.722656 194.347656 -196.046875 195.859375 -192.734375 Z M 195.859375 -192.734375 "/></g></g></g><g fill="#323232" fill-opacity="1"><g transform="translate(249.042608, 225.476621)"><g><path d="M 221.453125 0 L 184.484375 0 L 184.484375 -50.03125 L 54.578125 -50.03125 L 54.578125 0 L 17.625 0 L 17.625 -101.90625 C 17.625 -116.78125 20.179688 -130.472656 25.296875 -142.984375 C 30.410156 -155.492188 37.515625 -166.25 46.609375 -175.25 C 55.710938 -184.25 66.46875 -191.257812 78.875 -196.28125 C 91.289062 -201.3125 104.84375 -203.828125 119.53125 -203.828125 L 202.828125 -203.828125 C 205.390625 -203.828125 207.804688 -203.351562 210.078125 -202.40625 C 212.347656 -201.457031 214.335938 -200.128906 216.046875 -198.421875 C 217.753906 -196.710938 219.082031 -194.722656 220.03125 -192.453125 C 220.976562 -190.179688 221.453125 -187.765625 221.453125 -185.203125 Z M 54.578125 -86.984375 L 184.484375 -86.984375 L 184.484375 -166.875 L 119.53125 -166.875 C 118.394531 -166.875 116.003906 -166.707031 112.359375 -166.375 C 108.710938 -166.039062 104.492188 -165.207031 99.703125 -163.875 C 94.921875 -162.550781 89.875 -160.515625 84.5625 -157.765625 C 79.257812 -155.023438 74.378906 -151.238281 69.921875 -146.40625 C 65.472656 -141.570312 61.800781 -135.53125 58.90625 -128.28125 C 56.019531 -121.03125 54.578125 -112.238281 54.578125 -101.90625 Z M 54.578125 -86.984375 "/></g></g><g transform="translate(491.952761, 225.476621)"><g><path d="M 224.578125 -118.546875 C 224.578125 -110.109375 223.535156 -102.570312 221.453125 -95.9375 C 219.367188 -89.300781 216.546875 -83.445312 212.984375 -78.375 C 209.429688 -73.3125 205.332031 -68.976562 200.6875 -65.375 C 196.050781 -61.78125 191.195312 -58.84375 186.125 -56.5625 C 181.050781 -54.289062 175.929688 -52.632812 170.765625 -51.59375 C 165.609375 -50.550781 160.753906 -50.03125 156.203125 -50.03125 L 72.625 -50.03125 L 72.625 -86.984375 L 156.203125 -86.984375 C 160.941406 -87.367188 165.226562 -88.34375 169.0625 -89.90625 C 172.90625 -91.46875 176.203125 -93.570312 178.953125 -96.21875 C 181.703125 -98.875 183.832031 -102.070312 185.34375 -105.8125 C 186.863281 -109.5625 187.625 -113.804688 187.625 -118.546875 L 187.625 -135.3125 C 187.144531 -139.957031 186.144531 -144.222656 184.625 -148.109375 C 183.113281 -151.992188 181.054688 -155.304688 178.453125 -158.046875 C 175.847656 -160.796875 172.695312 -162.953125 169 -164.515625 C 165.300781 -166.085938 161.035156 -166.875 156.203125 -166.875 L 72.921875 -166.875 C 67.992188 -166.875 64.25 -165.59375 61.6875 -163.03125 C 59.125 -160.46875 57.84375 -156.769531 57.84375 -151.9375 L 57.84375 0 L 20.890625 0 L 20.890625 -151.9375 C 20.890625 -161.414062 22.617188 -169.472656 26.078125 -176.109375 C 29.535156 -182.742188 33.847656 -188.097656 39.015625 -192.171875 C 44.179688 -196.242188 49.796875 -199.203125 55.859375 -201.046875 C 61.921875 -202.898438 67.507812 -203.828125 72.625 -203.828125 L 156.203125 -203.828125 C 164.546875 -203.828125 172.03125 -202.757812 178.65625 -200.625 C 185.289062 -198.488281 191.144531 -195.644531 196.21875 -192.09375 C 201.289062 -188.539062 205.601562 -184.441406 209.15625 -179.796875 C 212.707031 -175.160156 215.644531 -170.304688 217.96875 -165.234375 C 220.289062 -160.160156 221.972656 -155.039062 223.015625 -149.875 C 224.054688 -144.71875 224.578125 -139.863281 224.578125 -135.3125 Z M 224.578125 -118.546875 "/></g></g></g></svg>